<svg id="Layer_1" enable-background="new 0 0 512.013 512.013" height="512" viewBox="0 0 512.013 512.013" width="512" xmlns="http://www.w3.org/2000/svg"><g><g><path d="m91.035 205.133-4.065-1.949c-10.952-2.319-25.77-3.814-40.453-.146-5.129 1.281-8.89 5.664-9.355 10.93-.554 6.293 3.711 12.023 9.914 13.219 9.458 1.824 23.651 5.869 36.881 14.761l4.515-3.064 5.313-19.375z" fill="#dbedff"/><path d="m55.577 212.853c-4.991-.962-8.723-4.862-9.704-9.627-4.795 1.476-8.266 5.7-8.711 10.742-.554 6.293 3.711 12.023 9.914 13.219 9.458 1.824 23.651 5.869 36.881 14.761l4.515-3.064 3.225-11.761c-13.011-8.543-26.842-12.481-36.12-14.27z" fill="#b5dcff"/><path d="m431.328 17.672c-4.086-8.762-14.501-12.553-23.263-8.467s-12.553 14.501-8.467 23.263l6.065 13.005h3.747l27.983-12.34v-2.456z" fill="#b5dcff"/><path d="m417.149 27.556c-3.079-6.603-2.364-13.992 1.231-19.74-3.384-.575-6.969-.171-10.315 1.389-8.762 4.086-12.553 14.501-8.467 23.263l6.065 13.005h3.747l13.349-5.887z" fill="#8bcaff"/><path d="m321.505 200.177-7.574-16.243-5.771-1.108-52.881 24.808 11.881 25.492 5.111 2.181 43.899-20.47c5.521-2.576 7.91-9.139 5.335-14.66z" fill="#938493"/><path d="m453.516 106.674-7.574-16.243h-11.615l-190.667 92.395 11.619 23.474 4.756 2.765 188.145-87.734c5.522-2.574 7.911-9.136 5.336-14.657z" fill="#b7aeb8"/><path d="m473.433 67.542-5.445-11.677c-4.679-1.74-10.019-1.693-14.901.584l-220.535 102.838 9.276 20.347 5.972 3.192 221.22-103.156c4.567-2.131 6.543-7.56 4.413-12.128z" fill="#dbedff"/><path d="m452.818 57.656c5.263-2.454 11.067-2.293 15.972-.071l-12.057-25.857c-2.13-4.567-7.559-6.543-12.127-4.414l-221.22 103.156-2.226 3.829 11.797 25.878z" fill="#b5dcff"/><path d="m155.277 452.288c-19.05-27.62-51.658-87.194-3.153-116.508l-2.338-4.522-48.375-28.905h-4.242s-33.011 29.046-39.199 58.918c-8.694 41.972 2.486 101.624 9.324 131.371 2.191 9.531 12.614 14.604 21.477 10.471l60.36-28.146c8.632-4.026 11.553-14.838 6.146-22.679z" fill="#dd8858"/><path d="m100.66 474.633c-34.391-91.76.068-137.19 15.23-151.694 2.593-2.48 4.161-5.759 4.544-9.219l-19.024-11.367h-4.242s-33.011 29.046-39.199 58.918c-8.694 41.972 2.486 101.624 9.324 131.371 2.191 9.531 12.614 14.604 21.477 10.471l32.076-14.957c-14.22-2.094-20.186-13.523-20.186-13.523z" fill="#cb6c35"/><path d="m204.327 296.836c-6.116-4.224-14.278-10.805-21.61-19.77l-2.744-.432-16.5 7.125-4.645 18 1.028 2.208c8.976 6.203 21.262 12.811 35.27 15.204 5.211.89 10.418-1.61 12.961-6.244 3.039-5.539 1.438-12.501-3.76-16.091z" fill="#938493"/><path d="m235.303 160.383v-4.356l-11.917-25.557-82.303 38.379c-4.394 2.049-9.329 2.623-14.072 1.642-4.85-1.004-9.883-.631-14.372 1.463l-19.03 8.874c-6.806 3.174-10.143 10.906-7.869 18.064 3.361 10.58 6.031 26.524-1.009 41.24-2.508 5.243-3.116 11.192-1.422 16.752l13.859 45.47 54.956 33.427 12.183-50.13-13.08-6.517-27.567-61.647 1.5-6.103z" fill="#cb6c35"/><path d="m223.386 130.471-82.303 38.379c-4.394 2.049-9.329 2.623-14.072 1.642-4.85-1.004-9.883-.631-14.372 1.463l-19.03 8.874c-6.806 3.174-10.143 10.906-7.869 18.064 3.361 10.58 6.031 26.524-1.009 41.24-2.508 5.243-3.116 11.192-1.422 16.752l13.859 45.47 22.78 13.856c.7-2.447.783-5.073.177-7.635l-11.78-49.731c-1.096-4.628-.735-9.48 1.031-13.896 1.412-3.529 2.229-7.282 2.647-10.979 1.287-11.37 8.322-21.278 18.693-26.114l104.587-48.77v-3.057z" fill="#ae5e2e"/><path d="m146.115 197.617v5.841l31.795 69.925 5.173 3.512 89.188-41.589-36.968-79.279-89.188 41.589z" fill="#dbedff"/><path d="m247.8 182.825-12.497-26.798-89.188 41.589v.001 5.841l9.338 20.536 92.347-41.168z" fill="#b5dcff"/><path d="m127.339 206.372 18.776-8.756 36.968 79.278-18.776 8.756c-6.885 3.21-15.144.204-18.355-6.681l-25.294-54.243c-3.21-6.884-.204-15.144 6.681-18.354z" fill="#b5dcff"/><path d="m146.115 197.617-18.776 8.755c-6.885 3.21-9.891 11.47-6.681 18.355l9.364 20.081c2.738-11.579 13.888-15.668 13.888-15.668l13.995-6.239z" fill="#8bcaff"/></g><g><path d="m224.639 193.708c-1.75-3.755-6.212-5.378-9.967-3.628l-27.991 13.052c-3.754 1.75-5.378 6.213-3.627 9.967 1.272 2.729 3.977 4.333 6.802 4.333 1.062 0 2.14-.227 3.165-.705l27.991-13.052c3.754-1.751 5.378-6.213 3.627-9.967z"/><path d="m226.648 215.762-27.991 13.052c-3.754 1.75-5.378 6.213-3.627 9.967 1.272 2.729 3.977 4.333 6.802 4.333 1.062 0 2.14-.227 3.165-.705l27.991-13.052c3.754-1.75 5.378-6.213 3.627-9.967-1.751-3.755-6.213-5.379-9.967-3.628z"/><path d="m480.524 64.318-16.701-35.814c-3.874-8.309-13.788-11.915-22.094-8.042l-.415.194-2.896-6.208c-5.839-12.524-20.702-17.938-33.229-12.095-12.525 5.841-17.935 20.703-12.095 33.229l2.895 6.208-64.728 30.183c-3.754 1.75-5.378 6.213-3.627 9.967 1.751 3.755 6.213 5.378 9.967 3.628 21.951-10.236 85.938-40.073 110.468-51.512.814-.381 1.78-.025 2.16.787l16.701 35.814c.382.822.022 1.783-.787 2.16-9.445 4.405-208.045 97.013-214.422 99.986-8.726-18.711-7.821-16.771-18.075-38.76l72.205-33.669c3.754-1.75 5.378-6.213 3.627-9.967-1.75-3.754-6.212-5.378-9.967-3.628-5.87 2.737-157.3 73.35-161.305 75.218-2.909 1.355-6.241 1.745-9.383 1.094-6.685-1.382-13.275-.687-19.062 2.01l-19.03 8.875c-7.936 3.7-12.757 11.626-12.876 20.031-9.657-1.111-21.251-1.2-32.863 1.7-20.604 5.148-19.88 34.773.958 38.789 7.776 1.5 18.826 4.573 29.622 10.819-.769 4.588-.496 9.266.856 13.7l12.493 40.99c-9.101 8.781-32.581 33.51-38.004 59.69-8.898 42.955 2.044 102.751 9.358 134.573 3.261 14.186 18.771 21.736 31.957 15.588l60.36-28.146c12.83-5.984 17.193-22.073 9.149-33.733-6.92-10.032-12.687-20.011-17.14-29.661-1.735-3.761-6.192-5.402-9.952-3.667-3.761 1.735-5.403 6.191-3.667 9.953 4.812 10.426 11.006 21.156 18.411 31.892 2.77 4.016 1.31 9.547-3.142 11.622l-60.36 28.146c-4.539 2.117-9.877-.477-10.998-5.354-7.041-30.628-17.609-88.006-9.29-128.169 4.381-21.149 24.265-42.601 32.849-51.056l40.45 24.604c-14.755 12.834-21.243 30.567-18.843 51.911.462 4.116 4.178 7.076 8.291 6.615 4.116-.463 7.078-4.175 6.615-8.292-2.033-18.074 3.605-31.717 17.16-41.582l5.246 4.001c7.311 5.576 17.021 6.614 25.336 2.737l58.637-27.343c12.303-5.737 17.645-20.415 11.907-32.719l-14.969-32.103c9.191-4.286 67.766-31.6 81.347-37.933 9.281-4.326 13.294-15.342 8.964-24.625l-4.405-9.446 127.453-59.432c9.281-4.328 13.293-15.344 8.962-24.625l-4.404-9.446 16.281-7.592c8.331-3.885 11.928-13.766 8.044-22.095zm-73.835-35.074c-2.342-5.025-.162-10.963 4.84-13.296 5.007-2.336 10.956-.177 13.296 4.839l2.895 6.208-18.135 8.456zm-219.685 237.629-30.628-65.683 75.594-35.25c2.696 5.781 27.491 58.955 30.629 65.683zm9.678 44.849c-9.212-1.573-18.61-5.327-27.997-11.174 1.015-4.178.567-2.334 2.352-9.678l10.018-4.671c6.971 7.593 14.157 13.198 19.303 16.754h.001c4.215 2.912 1.46 9.653-3.677 8.769zm-43.64-35.976-25.293-54.243c-1.471-3.154-.102-6.917 3.053-8.388l11.979-5.586 30.629 65.683-11.979 5.586c-3.2 1.491-6.946.041-8.389-3.052zm-55.97-88.176 19.03-8.875c2.836-1.322 6.187-1.638 9.682-.916 6.282 1.301 12.946.523 18.763-2.188l75.505-35.209c4.493 9.634 3.382 7.252 5.579 11.962l-101.169 47.176c-10.649 4.966-15.273 17.671-10.308 28.322l25.294 54.243c2.895 6.206 8.628 10.65 15.386 11.932-1.316 5.415-1.128 4.644-7.283 29.97-8.931-5.432-34.8-21.167-43.75-26.611l-13.025-42.735v-.001c-1.169-3.832-.639-7.868 1.019-11.338 7.037-14.661 6.248-31.429 1.386-46.736-1.133-3.566.539-7.433 3.891-8.996zm-48.444 22.689c11.555-2.885 23.35-2.165 32.376-.678 1.281 7.066 1.37 14.396-.539 21.288-11.719-6.303-23.341-9.495-31.675-11.102-5.023-.969-5.231-8.241-.162-9.508zm127.743 127.822c-3.249 1.517-7.045 1.108-9.899-1.069l-5.608-4.278 4.119-16.95c9.675 5.463 19.452 9.063 29.175 10.724 2.387.408 4.825.382 7.251-.102zm63.29-40.128c2.241 4.808.154 10.543-4.653 12.785l-25.051 11.681c2.001-1.601 3.715-3.599 4.999-5.94 4.917-8.961 2.307-20.083-6.072-25.869-3.665-2.531-8.511-6.251-13.455-11.115l29.263-13.645zm75.34-94.66c.822 1.762.064 3.864-1.708 4.69l-37.101 17.301-5.897-12.646 40.301-18.793zm132.011-93.503c.824 1.765.061 3.866-1.708 4.69-9.769 4.555-171.546 79.993-181.348 84.564l-5.896-12.645 184.547-86.056z"/></g></g></svg>