<svg id="Capa_1" enable-background="new 0 0 512.019 512.019" height="512" viewBox="0 0 512.019 512.019" width="512" xmlns="http://www.w3.org/2000/svg"><g><g><g><path d="m247.232 319.291h-68.02l-5.272-69.289h55.175c-.001 0-18.972 46.448 18.117 69.289z" fill="#b5adb6"/></g><g><path d="m22.743 151.042c-11.883 0-19.176 13.016-12.971 23.151l18.043 29.47 23.452-26.311 3.452-26.311h-31.976z" fill="#7a6d79"/></g><g><path d="m229.114 250.002h-20s-18.971 46.448 18.118 69.289h20c-37.089-22.841-18.118-69.289-18.118-69.289z" fill="#a79ba7"/></g><g><g><path d="m247.231 326.79h-78.02c-4.142 0-7.5-3.358-7.5-7.5s3.358-7.5 7.5-7.5h78.02c13.391 0 24.286-10.894 24.286-24.285v-47.503c0-4.142 3.358-7.5 7.5-7.5s7.5 3.358 7.5 7.5v47.503c0 21.662-17.623 39.285-39.286 39.285z" fill="#7a6d79"/></g></g><g><path d="m125.539 426.318h-46.582c-8.104 0-14.14-7.481-12.427-15.402l34.81-160.914 72.599-10-35.973 176.29c-1.266 5.851-6.441 10.026-12.427 10.026z" fill="#b98080"/></g><g><path d="m163.939 250.002-35.973 166.29c-1.266 5.85-6.441 10.026-12.427 10.026h30c5.986 0 11.161-4.175 12.427-10.026l35.973-166.29-15.472-10z" fill="#ae6c6c"/></g><g><path d="m439.45 203.663h-32.2l-168.618 10-210.817-10 35.357-69.153c1.71-3.344 5.148-5.448 8.904-5.448h377.374v64.6c0 5.524-4.478 10.001-10 10.001z" fill="#b5adb6"/></g><g><path d="m489.51 186.21-15 2h-15.06v-43.694h15.06l15 2c2.761 0 5 2.238 5 5v29.694c0 2.761-2.239 5-5 5z" fill="#7a6d79"/></g><g><path d="m397.25 203.663h-369.435l35.142 42.694c1.9 2.308 4.732 3.645 7.721 3.645h283.709c2.989 0 5.821-1.337 7.721-3.645z" fill="#7a6d79"/></g><g><path d="m445.273 85.702c7.829 0 14.176 6.347 14.176 14.176v29.185h-43.185l16.127-35.103c2.313-5.033 7.344-8.258 12.882-8.258z" fill="#7a6d79"/></g><g><path d="m429.45 129.063v64.6c0 5.523-4.477 10-10 10h30c5.523 0 10-4.477 10-10v-64.6z" fill="#a79ba7"/></g><g><path d="m237.059 166.363h135.645c7.022 0 12.714-5.692 12.714-12.714v-24.586h-161.073v24.586c0 7.022 5.693 12.714 12.714 12.714z" fill="#efedef"/></g><g><path d="m499.51 144.516h-25c2.761 0 5 2.238 5 5v33.694c0 2.761-2.239 5-5 5h25c2.761 0 5-2.239 5-5v-33.694c0-2.761-2.239-5-5-5z" fill="#685e68"/></g><g><path d="m377.25 203.663-35.142 42.694c-1.9 2.308-4.732 3.645-7.721 3.645h30c2.989 0 5.821-1.337 7.721-3.645l35.142-42.694z" fill="#685e68"/></g></g><path d="m188.267 196.163v-27.466c0-4.142-3.358-7.5-7.5-7.5s-7.5 3.358-7.5 7.5v27.466h-22.906v-27.466c0-4.142-3.358-7.5-7.5-7.5s-7.5 3.358-7.5 7.5v27.466h-22.906v-27.466c0-4.142-3.358-7.5-7.5-7.5s-7.5 3.358-7.5 7.5v27.466h-57.372l29.776-58.239c.43-.84 1.283-1.362 2.226-1.362h84.596c4.142 0 7.5-3.358 7.5-7.5s-3.358-7.5-7.5-7.5h-84.595c-6.604 0-12.575 3.653-15.581 9.534l-6.363 12.445h-27.389c-8.333 0-15.739 4.34-19.812 11.609-4.073 7.27-3.907 15.852.444 22.958l18.044 29.47c.18.295.386.582.606.851l35.142 42.693c3.337 4.054 8.261 6.379 13.511 6.379h21.367l-7.715 35.664c-.875 4.049 1.696 8.041 5.745 8.917.535.116 1.068.171 1.593.171 3.455 0 6.563-2.402 7.323-5.916l8.401-38.836h77.251l-34.008 157.204c-.515 2.383-2.658 4.112-5.096 4.112h-66.582c-2.169 0-3.474-1.215-4.058-1.94s-1.497-2.257-1.038-4.376l18.218-84.214c.875-4.049-1.696-8.041-5.745-8.917-4.047-.874-8.04 1.697-8.916 5.745l-18.219 84.215c-1.298 6.003.169 12.187 4.025 16.967s9.59 7.521 15.732 7.521h66.582c9.45 0 17.759-6.704 19.757-15.94l19.705-91.087h62.208c.005 0 .01.001.015.001.007 0 .014-.001.021-.001 21.656-.008 39.272-17.627 39.272-39.285v-30.003h17.584c4.142 0 7.5-3.358 7.5-7.5s-3.358-7.5-7.5-7.5h-233.422c-.75 0-1.453-.332-1.93-.912l-25.045-30.427h347.66l-25.045 30.427c-.477.58-1.181.912-1.931.912h-27.599c-4.142 0-7.5 3.358-7.5 7.5s3.358 7.5 7.5 7.5h27.599c5.249 0 10.174-2.325 13.512-6.378l32.892-39.96h38.659c8.956 0 16.351-6.766 17.37-15.453h32.69c6.893 0 12.5-5.607 12.5-12.5v-33.694c0-6.893-5.607-12.5-12.5-12.5h-32.56v-7.954-29.187c0-11.952-9.724-21.676-21.676-21.676-8.441 0-16.173 4.956-19.696 12.627l-14.12 30.734h-222.099c-4.142 0-7.5 3.358-7.5 7.5s3.358 7.5 7.5 7.5h27.486v17.087c0 11.146 9.068 20.214 20.214 20.214h135.646c11.146 0 20.214-9.068 20.214-20.214v-17.087h23.304c.012 0 .025.002.037.002.009 0 .018-.002.027-.002h35.662v57.101c0 1.378-1.121 2.5-2.5 2.5zm11.733 61.339h19.051c-1.166 4.998-2.224 11.441-2.276 18.523-.103 13.967 3.685 26.044 11.056 35.765h-39.575zm71.527 30.003c0 12.69-9.785 23.13-22.205 24.19-23.055-15.743-18.012-43.213-14.818-54.193h37.023zm-255.5-125.023c.664-1.185 2.648-3.941 6.726-3.941h19.719l-15.235 29.798-11.059-18.062c-2.129-3.478-.815-6.61-.151-7.795zm361.902-8.833c0 2.875-2.339 5.214-5.214 5.214h-135.646c-2.875 0-5.214-2.339-5.214-5.214v-17.087h146.074zm50.045-32.087 11.244-24.472c1.085-2.362 3.466-3.889 6.066-3.889 3.681 0 6.676 2.995 6.676 6.676v21.685zm69.045 59.148h-30.06v-28.694h30.06z"/></g></svg>